<svg xmlns="http://www.w3.org/2000/svg" width="128" height="128" viewBox="0 0 128 128">
  <defs>
    <!-- Define mortar color -->
    <rect id="mortar" width="128" height="128" fill="#2a2218"/>
  </defs>

  <!-- Mortar background -->
  <use href="#mortar"/>

  <!-- Row 1 -->
  <rect x="1" y="1" width="50" height="18" fill="#5a4a3a"/>
  <rect x="53" y="1" width="50" height="18" fill="#6b5546"/>
  <rect x="105" y="1" width="20" height="18" fill="#4d3d2d"/>

  <!-- Row 2 (offset) -->
  <rect x="-24" y="21" width="50" height="18" fill="#7a6352"/>
  <rect x="28" y="21" width="50" height="18" fill="#5a4a3a"/>
  <rect x="80" y="21" width="50" height="18" fill="#6b5546"/>

  <!-- Row 3 -->
  <rect x="1" y="41" width="50" height="18" fill="#4d3d2d"/>
  <rect x="53" y="41" width="50" height="18" fill="#7a6352"/>
  <rect x="105" y="41" width="20" height="18" fill="#5a4a3a"/>

  <!-- Row 4 (offset) -->
  <rect x="-24" y="61" width="50" height="18" fill="#6b5546"/>
  <rect x="28" y="61" width="50" height="18" fill="#4d3d2d"/>
  <rect x="80" y="61" width="50" height="18" fill="#7a6352"/>

  <!-- Row 5 -->
  <rect x="1" y="81" width="50" height="18" fill="#5a4a3a"/>
  <rect x="53" y="81" width="50" height="18" fill="#6b5546"/>
  <rect x="105" y="81" width="20" height="18" fill="#4d3d2d"/>

  <!-- Row 6 (offset) -->
  <rect x="-24" y="101" width="50" height="18" fill="#7a6352"/>
  <rect x="28" y="101" width="50" height="18" fill="#5a4a3a"/>
  <rect x="80" y="101" width="50" height="18" fill="#6b5546"/>

  <!-- Weathering effects - dark spots and stains -->
  <circle cx="15" cy="8" r="2" fill="#1e140a" opacity="0.4"/>
  <circle cx="42" cy="14" r="1.5" fill="#1e140a" opacity="0.5"/>
  <circle cx="68" cy="6" r="2.5" fill="#1e140a" opacity="0.3"/>
  <circle cx="95" cy="12" r="1" fill="#1e140a" opacity="0.6"/>
  <ellipse cx="8" cy="28" rx="3" ry="1.5" fill="#1e140a" opacity="0.4"/>
  <circle cx="45" cy="26" r="2" fill="#1e140a" opacity="0.5"/>
  <circle cx="88" cy="32" r="1.5" fill="#1e140a" opacity="0.4"/>
  <circle cx="115" cy="28" r="1" fill="#1e140a" opacity="0.6"/>
  <circle cx="22" cy="48" r="2" fill="#1e140a" opacity="0.4"/>
  <circle cx="58" cy="52" r="1.5" fill="#1e140a" opacity="0.5"/>
  <circle cx="95" cy="46" r="2" fill="#1e140a" opacity="0.3"/>
  <ellipse cx="12" cy="68" rx="2.5" ry="1" fill="#1e140a" opacity="0.5"/>
  <circle cx="48" cy="72" r="1.5" fill="#1e140a" opacity="0.4"/>
  <circle cx="92" cy="66" r="2" fill="#1e140a" opacity="0.5"/>
  <circle cx="118" cy="70" r="1" fill="#1e140a" opacity="0.6"/>
  <circle cx="18" cy="88" r="2.5" fill="#1e140a" opacity="0.3"/>
  <circle cx="62" cy="92" r="1" fill="#1e140a" opacity="0.6"/>
  <circle cx="102" cy="86" r="1.5" fill="#1e140a" opacity="0.4"/>
  <circle cx="6" cy="108" r="2" fill="#1e140a" opacity="0.5"/>
  <circle cx="52" cy="114" r="1.5" fill="#1e140a" opacity="0.4"/>
  <circle cx="98" cy="106" r="2" fill="#1e140a" opacity="0.3"/>

  <!-- Crumbling effects - missing chunks at edges -->
  <rect x="50" y="1" width="2" height="3" fill="#2a2218"/>
  <rect x="25" y="18" width="2" height="2" fill="#2a2218"/>
  <rect x="78" y="2" width="3" height="2" fill="#2a2218"/>
  <rect x="103" y="17" width="2" height="2" fill="#2a2218"/>
  <rect x="1" y="21" width="2" height="3" fill="#2a2218"/>
  <rect x="77" y="23" width="2" height="2" fill="#2a2218"/>
  <rect x="27" y="38" width="3" height="2" fill="#2a2218"/>
  <rect x="100" y="41" width="2" height="3" fill="#2a2218"/>
  <rect x="52" y="43" width="2" height="2" fill="#2a2218"/>
  <rect x="5" y="58" width="2" height="2" fill="#2a2218"/>
  <rect x="79" y="61" width="3" height="2" fill="#2a2218"/>
  <rect x="50" y="78" width="2" height="2" fill="#2a2218"/>
  <rect x="102" y="59" width="2" height="3" fill="#2a2218"/>
  <rect x="1" y="81" width="2" height="2" fill="#2a2218"/>
  <rect x="77" y="83" width="2" height="3" fill="#2a2218"/>
  <rect x="28" y="98" width="3" height="2" fill="#2a2218"/>
  <rect x="103" y="97" width="2" height="2" fill="#2a2218"/>
  <rect x="52" y="101" width="2" height="3" fill="#2a2218"/>
  <rect x="82" y="118" width="2" height="2" fill="#2a2218"/>

  <!-- Cracks and texture lines -->
  <line x1="25" y1="5" x2="27" y2="15" stroke="#3d2e1f" stroke-width="0.5" opacity="0.6"/>
  <line x1="70" y1="3" x2="72" y2="16" stroke="#3d2e1f" stroke-width="0.5" opacity="0.6"/>
  <line x1="8" y1="25" x2="10" y2="35" stroke="#3d2e1f" stroke-width="0.5" opacity="0.6"/>
  <line x1="58" y1="24" x2="60" y2="36" stroke="#3d2e1f" stroke-width="0.5" opacity="0.6"/>
  <line x1="105" y1="27" x2="107" y2="37" stroke="#3d2e1f" stroke-width="0.5" opacity="0.6"/>
  <line x1="35" y1="45" x2="37" y2="56" stroke="#3d2e1f" stroke-width="0.5" opacity="0.6"/>
  <line x1="82" y1="43" x2="84" y2="55" stroke="#3d2e1f" stroke-width="0.5" opacity="0.6"/>
  <line x1="12" y1="65" x2="14" y2="75" stroke="#3d2e1f" stroke-width="0.5" opacity="0.6"/>
  <line x1="62" y1="63" x2="64" y2="76" stroke="#3d2e1f" stroke-width="0.5" opacity="0.6"/>
  <line x1="115" y1="68" x2="117" y2="78" stroke="#3d2e1f" stroke-width="0.5" opacity="0.6"/>
  <line x1="42" y1="85" x2="44" y2="96" stroke="#3d2e1f" stroke-width="0.5" opacity="0.6"/>
  <line x1="88" y1="83" x2="90" y2="95" stroke="#3d2e1f" stroke-width="0.5" opacity="0.6"/>
  <line x1="15" y1="105" x2="17" y2="116" stroke="#3d2e1f" stroke-width="0.5" opacity="0.6"/>
  <line x1="68" y1="104" x2="70" y2="117" stroke="#3d2e1f" stroke-width="0.5" opacity="0.6"/>

  <!-- Overall weathering overlay -->
  <rect width="128" height="128" fill="#000000" opacity="0.1"/>
</svg>
